<svg width="25" height="24" viewBox="0 0 25 24" fill="none" xmlns="http://www.w3.org/2000/svg">
<path d="M21.1227 17.3654C20.7996 18.0991 20.417 18.7744 19.9738 19.3953C19.3697 20.2418 18.8751 20.8277 18.4938 21.153C17.9029 21.6871 17.2697 21.9606 16.5917 21.9762C16.105 21.9762 15.518 21.8401 14.8348 21.564C14.1492 21.2891 13.5192 21.153 12.9432 21.153C12.3391 21.153 11.6911 21.2891 10.9981 21.564C10.304 21.8401 9.74486 21.9839 9.31735 21.9982C8.66718 22.0254 8.01913 21.7441 7.37226 21.153C6.95939 20.7992 6.44297 20.1925 5.82433 19.3331C5.16057 18.4153 4.61488 17.3511 4.18737 16.1378C3.72952 14.8273 3.5 13.5583 3.5 12.3297C3.5 10.9223 3.80945 9.70852 4.42928 8.69134C4.91642 7.87431 5.56447 7.22981 6.37557 6.75668C7.18666 6.28355 8.06305 6.04244 9.00684 6.02702C9.52326 6.02702 10.2005 6.18399 11.042 6.4925C11.8812 6.80205 12.4201 6.95903 12.6563 6.95903C12.8329 6.95903 13.4315 6.77548 14.4463 6.40954C15.4059 6.07018 16.2158 5.92967 16.8793 5.98502C18.6772 6.12761 20.0279 6.82409 20.9262 8.07886C19.3183 9.03628 18.5229 10.3773 18.5387 12.0975C18.5532 13.4375 19.0479 14.5525 20.02 15.4378C20.4606 15.8488 20.9526 16.1663 21.5 16.3919C21.3813 16.7302 21.256 17.0543 21.1227 17.3654ZM16.9993 1.42012C16.9993 2.47036 16.6089 3.45096 15.8306 4.3586C14.8915 5.43761 13.7555 6.06111 12.5236 5.96272C12.5079 5.83673 12.4988 5.70412 12.4988 5.56477C12.4988 4.55654 12.9454 3.47754 13.7386 2.59531C14.1346 2.14862 14.6382 1.7772 15.2489 1.48091C15.8583 1.18905 16.4348 1.02764 16.9769 1C16.9927 1.1404 16.9993 1.28081 16.9993 1.42011V1.42012Z" fill="white"/>
</svg>
