<svg width="33" height="32" viewBox="0 0 33 32" fill="none" xmlns="http://www.w3.org/2000/svg">
<path d="M29.25 17.6927C28.9418 20.0321 27.9998 22.2439 26.5249 24.0909C25.0501 25.9378 23.098 27.3503 20.8782 28.1767C18.6583 29.0031 16.2543 29.2123 13.924 28.7819C11.5938 28.3516 9.42512 27.2978 7.65071 25.7336C5.8763 24.1695 4.56304 22.154 3.85178 19.9033C3.14052 17.6526 3.05809 15.2516 3.61333 12.9578C4.16857 10.664 5.34053 8.56389 7.00353 6.88278C8.66652 5.20168 10.7578 4.00295 13.0531 3.41518C19.416 1.79052 24.9167 5.16656 27.0833 9.49993M27.0833 9.49993L27.8993 4.26129M27.0833 9.49993L22.1215 8.59464" stroke="white" stroke-width="1.7" stroke-linecap="round" stroke-linejoin="round"/>
<path d="M10.2617 20.5V19.1055H12.1484V13.7852L10.6484 14.6641L10.0156 13.4336L12.6523 11.875H13.8711V19.1055H15.7578V20.5H10.2617ZM19.8594 20.6289C18.7695 20.6289 17.6211 20.2305 16.9297 19.6094L17.4922 18.3789C18.3008 18.9648 19.0742 19.2812 19.8711 19.2812C20.9141 19.2812 21.4766 18.7305 21.4766 17.7695C21.4766 16.832 20.8789 16.2578 19.918 16.2578C19.3086 16.2578 18.6758 16.3867 18.2305 16.5742H17.2227L17.6328 11.875H22.6953V13.1289H19.1328L18.9688 15.1211C19.3555 15.0156 19.8242 14.9688 20.375 14.9688C21.9805 14.9688 23.0938 16.0586 23.0938 17.7109C23.0938 19.4688 21.8281 20.6289 19.8594 20.6289Z" fill="white"/>
</svg>
