<svg width="19" height="16" viewBox="0 0 19 16" fill="none" xmlns="http://www.w3.org/2000/svg">
<path fill-rule="evenodd" clip-rule="evenodd" d="M9.52936 1.51058C8.79672 1.51058 8.08314 1.82103 7.54886 2.39178C7.01299 2.96422 6.70401 3.75067 6.70401 4.58031C6.70401 4.93413 6.86247 5.40879 7.12972 6.03343C7.18281 6.15752 7.24085 6.28874 7.30092 6.42457C7.51182 6.90143 7.74784 7.43508 7.88313 7.916C8.05416 8.52394 8.16066 9.36688 7.55972 10.024C7.00708 10.6283 6.05898 10.8311 4.86557 10.8311C3.89633 10.8311 3.09365 11.0401 2.53008 11.5652C2.05822 12.0049 1.65106 12.7632 1.54028 14.0988H17.4607C17.3528 12.7578 16.9553 11.9985 16.4939 11.5602C15.9463 11.0399 15.1621 10.8311 14.1931 10.8311C12.9997 10.8311 12.0516 10.6283 11.499 10.024C10.8981 9.36688 11.0046 8.52394 11.1756 7.916C11.3109 7.43508 11.5469 6.90143 11.7578 6.42457C11.8179 6.28874 11.8759 6.15752 11.929 6.03343C12.1963 5.40879 12.3547 4.93413 12.3547 4.58031C12.3547 3.75067 12.0457 2.96422 11.5099 2.39178C10.9756 1.82103 10.262 1.51058 9.52936 1.51058ZM6.44607 1.35945C7.25478 0.495538 8.3627 0 9.52936 0C10.696 0 11.8039 0.495538 12.6127 1.35945C13.4198 2.22167 13.8653 3.38104 13.8653 4.58031C13.8653 5.28315 13.5762 6.02376 13.3178 6.62764C13.2454 6.79681 13.1745 6.95753 13.1067 7.11122C12.9063 7.56514 12.7331 7.95768 12.6297 8.32509C12.4886 8.82685 12.5744 8.96153 12.6137 9.0046C12.7014 9.10047 13.0547 9.32049 14.1931 9.32049C15.3448 9.32049 16.5864 9.56437 17.5344 10.465C18.4883 11.3713 19 12.8032 19 14.8541C19 15.2712 18.6619 15.6094 18.2447 15.6094H0.755292C0.338156 15.6094 0 15.2712 0 14.8541C0 12.797 0.52973 11.3644 1.50031 10.46C2.46172 9.56421 3.71418 9.32049 4.86557 9.32049C6.00406 9.32049 6.3573 9.10047 6.44498 9.00459C6.48436 8.96153 6.57016 8.82685 6.429 8.32509C6.32564 7.95768 6.15239 7.56514 5.95206 7.11122C5.88423 6.95753 5.8133 6.79681 5.74092 6.62764C5.48255 6.02376 5.19342 5.28315 5.19342 4.58031C5.19342 3.38104 5.63893 2.22167 6.44607 1.35945Z" fill="#131218"/>
</svg>
