<svg width="18" height="18" viewBox="0 0 18 18" fill="none" xmlns="http://www.w3.org/2000/svg">
<path d="M0 6.73405C0 5.99847 0.367623 5.31156 0.97966 4.90353L7.77966 0.370201C8.51864 -0.122452 9.48136 -0.122452 10.2203 0.370201L17.0203 4.90353C17.6324 5.31156 18 5.99847 18 6.73405V15.5566C18 16.6612 17.1046 17.5566 16 17.5566H12.5C11.6716 17.5566 11 16.8851 11 16.0566V11.5566C11 11.0044 10.5523 10.5566 10 10.5566H8C7.44772 10.5566 7 11.0044 7 11.5566V16.0566C7 16.8851 6.32843 17.5566 5.5 17.5566H2C0.89543 17.5566 0 16.6612 0 15.5566V6.73405Z" fill="#413D4F"/>
</svg>
