<svg width="19" height="13" viewBox="0 0 19 13" fill="none" xmlns="http://www.w3.org/2000/svg">
<path d="M15.754 4.54649C15.7941 4.31345 15.8151 4.07299 15.8151 3.8271C15.8151 1.71346 14.2662 0 12.3555 0C11.1864 0 10.1528 0.641466 9.52657 1.6236C8.92534 1.06525 8.14991 0.728973 7.3035 0.728973C5.41116 0.728973 3.87369 2.40967 3.84436 4.49529H3.84393C1.72097 4.49529 0 6.39911 0 8.74764C0 11.0962 1.72097 13 3.84393 13H15.1561C17.279 13 19 11.0962 19 8.74764C19 6.6241 17.593 4.86423 15.754 4.54649Z" fill="#87BEFF"/>
</svg>
