<svg width="33" height="32" viewBox="0 0 33 32" fill="none" xmlns="http://www.w3.org/2000/svg">
<path d="M3.75 17.6927C4.05816 20.0321 5.00019 22.2439 6.47505 24.0909C7.94991 25.9378 9.90196 27.3503 12.1218 28.1767C14.3417 29.0031 16.7457 29.2123 19.076 28.7819C21.4062 28.3516 23.5749 27.2978 25.3493 25.7336C27.1237 24.1695 28.437 22.154 29.1482 19.9033C29.8595 17.6526 29.9419 15.2516 29.3867 12.9578C28.8314 10.664 27.6595 8.56389 25.9965 6.88278C24.3335 5.20168 22.2422 4.00295 19.9469 3.41518C13.584 1.79052 8.08333 5.16656 5.91667 9.49993M5.91667 9.49993L5.1007 4.26129M5.91667 9.49993L10.8785 8.59464" stroke="white" stroke-width="1.7" stroke-linecap="round" stroke-linejoin="round"/>
<path d="M10.7617 20.5V19.1055H12.6484V13.7852L11.1484 14.6641L10.5156 13.4336L13.1523 11.875H14.3711V19.1055H16.2578V20.5H10.7617ZM20.3594 20.6289C19.2695 20.6289 18.1211 20.2305 17.4297 19.6094L17.9922 18.3789C18.8008 18.9648 19.5742 19.2812 20.3711 19.2812C21.4141 19.2812 21.9766 18.7305 21.9766 17.7695C21.9766 16.832 21.3789 16.2578 20.418 16.2578C19.8086 16.2578 19.1758 16.3867 18.7305 16.5742H17.7227L18.1328 11.875H23.1953V13.1289H19.6328L19.4688 15.1211C19.8555 15.0156 20.3242 14.9688 20.875 14.9688C22.4805 14.9688 23.5938 16.0586 23.5938 17.7109C23.5938 19.4688 22.3281 20.6289 20.3594 20.6289Z" fill="white"/>
</svg>
