<svg width="18" height="17" viewBox="0 0 18 17" fill="none" xmlns="http://www.w3.org/2000/svg">
<path fill-rule="evenodd" clip-rule="evenodd" d="M9.00111 0C10.8064 0 12.2698 1.42889 12.2698 3.19151C12.2698 4.95413 10.8064 6.38301 9.00111 6.38301C7.19586 6.38301 5.73245 4.95413 5.73245 3.19151C5.73245 1.42889 7.19586 0 9.00111 0ZM3.54044 16.3902C2.07998 15.3542 1.75622 13.3583 2.81731 11.9323C3.8784 10.5063 5.9225 10.1902 7.38297 11.2263C8.84344 12.2623 9.16718 14.2582 8.10614 15.6842C7.04502 17.1102 5.0009 17.4263 3.54044 16.3902ZM15.1955 11.9323C16.2566 13.3583 15.9329 15.3542 14.4724 16.3902C13.0119 17.4263 10.9678 17.1102 9.90674 15.6842C8.84562 14.2582 9.16936 12.2623 10.6298 11.2263C12.0903 10.1902 14.1344 10.5063 15.1955 11.9323ZM0.160862 6.25567C0.718709 4.57934 2.56273 3.66194 4.27961 4.20662C5.99648 4.7513 6.93606 6.55183 6.37822 8.22816C5.82037 9.90449 3.97634 10.8219 2.25947 10.2772C0.54259 9.73253 -0.396984 7.93207 0.160862 6.25567ZM13.7204 4.20662C15.4373 3.66194 17.2813 4.57934 17.8391 6.25567C18.397 7.93207 17.4574 9.73253 15.7406 10.2772C14.0236 10.8219 12.1797 9.90449 11.6218 8.22816C11.064 6.55183 12.0035 4.7513 13.7204 4.20662Z" fill="#FFC887"/>
</svg>
