<svg width="69" height="68" viewBox="0 0 69 68" fill="none" xmlns="http://www.w3.org/2000/svg">
<g opacity="0.55">
<path d="M35.6595 61.3305C30.4293 60.0036 7.87182 53.1137 8.996 26.1234C11.0185 11.5793 19.9236 6.39061 33.9393 4.98822L32.5105 8.71083C26.9386 12.7639 29.9255 11.7857 28.9025 19.1419C28.2632 23.7394 28.8833 30.476 30.4293 32.2653C31.8888 33.437 33.0113 32.7535 33.9393 32.7535C35.4675 32.7535 38.2018 34.0774 36.6734 37.5382C35.4508 40.3068 36.4113 43.9112 37.2095 44.8008C39.8897 51.3574 46.7796 54.87 56.5066 54.87C48.9412 62.0301 38.6007 60.8211 35.6595 61.3305Z" fill="#8F8AA1"/>
<path d="M32.096 50.6956C32.1729 50.2927 32.213 49.8771 32.213 49.452C32.213 45.7981 29.2462 42.8359 25.5863 42.8359C23.347 42.8359 21.3671 43.9449 20.1677 45.6427C19.016 44.6775 17.5307 44.0961 15.9095 44.0961C12.2848 44.0961 9.33982 47.0016 9.28364 50.6071H9.28282C5.21637 50.6071 1.91992 53.8983 1.91992 57.9583C1.91992 62.0183 5.21637 65.3095 9.28282 65.3095H30.9508C35.0172 65.3095 38.3136 62.0183 38.3136 57.9583C38.3136 54.2873 35.6186 51.2449 32.096 50.6956Z" fill="#7E7993"/>
<path d="M28.6619 22.3697C19.1387 22.7047 17.5003 21.6911 10.7207 19.0782C18.5495 0.0547769 41.6531 -4.2679 44.3867 16.8557C32.5563 4.45756 28.6619 18.7913 28.6619 22.3697Z" fill="#7E7993"/>
<path d="M44.7386 12.7652C44.8698 12.6063 45.123 12.6441 45.202 12.8344L46.1333 15.078C46.1617 15.1463 46.2166 15.2003 46.2855 15.2274L48.5451 16.1191C48.7368 16.1948 48.7791 16.4473 48.6225 16.5812L46.7765 18.1603C46.7203 18.2084 46.6859 18.2773 46.6814 18.3512L46.5316 20.7757C46.5189 20.9814 46.2918 21.0997 46.116 20.9921L44.0438 19.7245C43.9807 19.6859 43.9045 19.6745 43.8328 19.693L41.4807 20.2997C41.2811 20.3512 41.0985 20.1718 41.1465 19.9714L41.7117 17.6089C41.7289 17.5369 41.7162 17.461 41.6765 17.3985L40.3725 15.349C40.2619 15.1751 40.3761 14.946 40.5816 14.9296L43.0031 14.7372C43.0769 14.7313 43.1452 14.6958 43.1923 14.6387L44.7386 12.7652Z" fill="#8F8AA1"/>
<path d="M20.9521 30.459C21.5202 30.5412 22.0172 30.5902 22.4601 30.6057C23.192 30.6314 23.776 30.5658 24.2882 30.4076C24.8232 30.2423 25.28 29.9761 25.7451 29.6075C25.9947 29.4097 26.2467 29.1825 26.5145 28.9256" stroke="#514E61" stroke-width="1.77717" stroke-linecap="square"/>
<path d="M49.6748 35.4323V34.2076L54.0301 28.7989H49.6748V27.3848H56.1851V28.6094L51.8148 34.0181H56.381V35.4323H49.6748Z" fill="#8F8AA1"/>
<path d="M58.0137 31.4063V29.6949L63.9016 22.1364H58.0137V20.1602H66.815V21.8715L60.9067 29.43H67.0798V31.4063H58.0137Z" fill="#8F8AA1"/>
</g>
</svg>
