<svg width="19" height="18" viewBox="0 0 19 18" fill="none" xmlns="http://www.w3.org/2000/svg">
<path d="M12.5 3.75H17M14.75 1.5V6M16.25 8.625V14.25C16.25 14.6478 16.092 15.0294 15.8107 15.3107C15.5294 15.592 15.1478 15.75 14.75 15.75H4.25C3.85218 15.75 3.47064 15.592 3.18934 15.3107C2.90804 15.0294 2.75 14.6478 2.75 14.25V3.75C2.75 3.35218 2.90804 2.97064 3.18934 2.68934C3.47064 2.40804 3.85218 2.25 4.25 2.25H9.875M16.25 11.25L13.9355 8.9355C13.6542 8.65429 13.2727 8.49632 12.875 8.49632C12.4773 8.49632 12.0958 8.65429 11.8145 8.9355L5 15.75M8.75 6.75C8.75 7.57843 8.07843 8.25 7.25 8.25C6.42157 8.25 5.75 7.57843 5.75 6.75C5.75 5.92157 6.42157 5.25 7.25 5.25C8.07843 5.25 8.75 5.92157 8.75 6.75Z" stroke="white" stroke-width="1.125" stroke-linecap="round" stroke-linejoin="round"/>
</svg>
