<svg width="24" height="24" viewBox="0 0 24 24" fill="none" xmlns="http://www.w3.org/2000/svg">
<mask id="path-1-inside-1_809_97" fill="white">
<path fill-rule="evenodd" clip-rule="evenodd" d="M12 3.75C16.5563 3.75 20.25 7.44365 20.25 12C20.25 16.5563 16.5563 20.25 12 20.25C7.44365 20.25 3.75 16.5563 3.75 12C3.75 7.44365 7.44365 3.75 12 3.75ZM12 21.75C17.3848 21.75 21.75 17.3848 21.75 12C21.75 6.61522 17.3848 2.25 12 2.25C6.61522 2.25 2.25 6.61522 2.25 12C2.25 17.3848 6.61522 21.75 12 21.75ZM12 17C14.7614 17 17 14.7614 17 12C17 9.23858 14.7614 7 12 7C9.23858 7 7 9.23858 7 12C7 14.7614 9.23858 17 12 17Z"/>
</mask>
<path fill-rule="evenodd" clip-rule="evenodd" d="M12 3.75C16.5563 3.75 20.25 7.44365 20.25 12C20.25 16.5563 16.5563 20.25 12 20.25C7.44365 20.25 3.75 16.5563 3.75 12C3.75 7.44365 7.44365 3.75 12 3.75ZM12 21.75C17.3848 21.75 21.75 17.3848 21.75 12C21.75 6.61522 17.3848 2.25 12 2.25C6.61522 2.25 2.25 6.61522 2.25 12C2.25 17.3848 6.61522 21.75 12 21.75ZM12 17C14.7614 17 17 14.7614 17 12C17 9.23858 14.7614 7 12 7C9.23858 7 7 9.23858 7 12C7 14.7614 9.23858 17 12 17Z" fill="#724BFF"/>
<path d="M20.25 12H21.25C21.25 6.89137 17.1086 2.75 12 2.75V3.75V4.75C16.0041 4.75 19.25 7.99594 19.25 12H20.25ZM12 20.25V21.25C17.1086 21.25 21.25 17.1086 21.25 12H20.25H19.25C19.25 16.0041 16.0041 19.25 12 19.25V20.25ZM3.75 12H2.75C2.75 17.1086 6.89137 21.25 12 21.25V20.25V19.25C7.99594 19.25 4.75 16.0041 4.75 12H3.75ZM12 3.75V2.75C6.89137 2.75 2.75 6.89137 2.75 12H3.75H4.75C4.75 7.99594 7.99594 4.75 12 4.75V3.75ZM21.75 12H20.75C20.75 16.8325 16.8325 20.75 12 20.75V21.75V22.75C17.9371 22.75 22.75 17.9371 22.75 12H21.75ZM12 2.25V3.25C16.8325 3.25 20.75 7.16751 20.75 12H21.75H22.75C22.75 6.06294 17.9371 1.25 12 1.25V2.25ZM2.25 12H3.25C3.25 7.16751 7.16751 3.25 12 3.25V2.25V1.25C6.06294 1.25 1.25 6.06294 1.25 12H2.25ZM12 21.75V20.75C7.16751 20.75 3.25 16.8325 3.25 12H2.25H1.25C1.25 17.9371 6.06294 22.75 12 22.75V21.75ZM17 12H16C16 14.2091 14.2091 16 12 16V17V18C15.3137 18 18 15.3137 18 12H17ZM12 7V8C14.2091 8 16 9.79086 16 12H17H18C18 8.68629 15.3137 6 12 6V7ZM7 12H8C8 9.79086 9.79086 8 12 8V7V6C8.68629 6 6 8.68629 6 12H7ZM12 17V16C9.79086 16 8 14.2091 8 12H7H6C6 15.3137 8.68629 18 12 18V17Z" fill="#724BFF" mask="url(#path-1-inside-1_809_97)"/>
</svg>
