<svg width="20" height="21" viewBox="0 0 20 21" fill="none" xmlns="http://www.w3.org/2000/svg">
<path d="M11.2502 5.91627L14.5835 9.2496M3.3335 17.1663H6.66683L15.4168 8.41627C15.6357 8.1974 15.8093 7.93756 15.9278 7.65159C16.0462 7.36563 16.1072 7.05913 16.1072 6.7496C16.1072 6.44007 16.0462 6.13357 15.9278 5.84761C15.8093 5.56164 15.6357 5.3018 15.4168 5.08293C15.198 4.86406 14.9381 4.69045 14.6522 4.572C14.3662 4.45354 14.0597 4.39258 13.7502 4.39258C13.4406 4.39258 13.1341 4.45354 12.8482 4.572C12.5622 4.69045 12.3024 4.86406 12.0835 5.08293L3.3335 13.8329V17.1663Z" stroke="white" stroke-width="1.25" stroke-linecap="round" stroke-linejoin="round"/>
</svg>
