<svg width="15" height="15" viewBox="0 0 15 15" fill="none" xmlns="http://www.w3.org/2000/svg">
<path d="M7.50001 0.642858V0V0.642858ZM14.3572 7.50001H15H14.3572ZM1.28572 10.0714V7.50001H0V10.0714H1.28572ZM1.28572 7.50001C1.28572 5.85188 1.94043 4.27125 3.10584 3.10584L2.1967 2.1967C0.790178 3.60323 0 5.51088 0 7.50001H1.28572ZM3.10584 3.10584C4.27125 1.94043 5.85188 1.28572 7.50001 1.28572V0C5.51088 0 3.60323 0.790178 2.1967 2.1967L3.10584 3.10584ZM7.50001 1.28572C9.14814 1.28572 10.7288 1.94043 11.8942 3.10584L12.8033 2.1967C11.3968 0.790178 9.48914 0 7.50001 0V1.28572ZM11.8942 3.10584C13.0596 4.27125 13.7143 5.85188 13.7143 7.50001H15C15 5.51088 14.2098 3.60323 12.8033 2.1967L11.8942 3.10584ZM13.7143 7.50001V10.0714H15V7.50001H13.7143ZM2.35715 9.00001H3.21429V7.7143H2.35715V9.00001ZM4.28572 10.0714V12.6429H5.57144V10.0714H4.28572ZM3.21429 13.7143H2.35715V15H3.21429V13.7143ZM1.28572 12.6429V10.0714H0V12.6429H1.28572ZM2.35715 13.7143C1.76541 13.7143 1.28572 13.2346 1.28572 12.6429H0C0 13.9447 1.05533 15 2.35715 15V13.7143ZM4.28572 12.6429C4.28572 13.2346 3.80602 13.7143 3.21429 13.7143V15C4.51611 15 5.57144 13.9447 5.57144 12.6429H4.28572ZM3.21429 9.00001C3.80602 9.00001 4.28572 9.47971 4.28572 10.0714H5.57144C5.57144 8.76963 4.51611 7.7143 3.21429 7.7143V9.00001ZM2.35715 7.7143C1.05533 7.7143 0 8.76963 0 10.0714H1.28572C1.28572 9.47971 1.76541 9.00001 2.35715 9.00001V7.7143ZM11.7857 9.00001H12.6429V7.7143H11.7857V9.00001ZM13.7143 10.0714V12.6429H15V10.0714H13.7143ZM12.6429 13.7143H11.7857V15H12.6429V13.7143ZM10.7143 12.6429V10.0714H9.42858V12.6429H10.7143ZM11.7857 13.7143C11.194 13.7143 10.7143 13.2346 10.7143 12.6429H9.42858C9.42858 13.9447 10.4839 15 11.7857 15V13.7143ZM13.7143 12.6429C13.7143 13.2346 13.2346 13.7143 12.6429 13.7143V15C13.9447 15 15 13.9447 15 12.6429H13.7143ZM12.6429 9.00001C13.2346 9.00001 13.7143 9.47971 13.7143 10.0714H15C15 8.76963 13.9447 7.7143 12.6429 7.7143V9.00001ZM11.7857 7.7143C10.4839 7.7143 9.42858 8.76963 9.42858 10.0714H10.7143C10.7143 9.47971 11.194 9.00001 11.7857 9.00001V7.7143Z" fill="#D6D3E0"/>
</svg>
