<svg width="11" height="11" viewBox="0 0 11 11" fill="none" xmlns="http://www.w3.org/2000/svg">
<path d="M5.5 0.471615V0.000186489V0.471615ZM10.5286 5.50019H11H10.5286ZM0.942856 7.3859V5.50019H-2.05608e-06V7.3859H0.942856ZM0.942856 5.50019C0.942856 4.29156 1.42298 3.13243 2.27761 2.2778L1.61091 1.6111C0.579461 2.64255 -2.05608e-06 4.0415 -2.05608e-06 5.50019H0.942856ZM2.27761 2.2778C3.13224 1.42317 4.29137 0.943044 5.5 0.943044V0.000186489C4.04131 0.000186489 2.64236 0.57965 1.61091 1.6111L2.27761 2.2778ZM5.5 0.943044C6.70863 0.943044 7.86776 1.42317 8.72239 2.2778L9.38909 1.6111C8.35764 0.57965 6.95869 0.000186489 5.5 0.000186489V0.943044ZM8.72239 2.2778C9.57702 3.13243 10.0571 4.29156 10.0571 5.50019H11C11 4.0415 10.4205 2.64255 9.38909 1.6111L8.72239 2.2778ZM10.0571 5.50019V7.3859H11V5.50019H10.0571ZM1.72857 6.60019H2.35714V5.65733H1.72857V6.60019ZM3.14286 7.3859V9.27162H4.08571V7.3859H3.14286ZM2.35714 10.0573H1.72857V11.0002H2.35714V10.0573ZM0.942856 9.27162V7.3859H-2.05608e-06V9.27162H0.942856ZM1.72857 10.0573C1.29463 10.0573 0.942856 9.70556 0.942856 9.27162H-2.05608e-06C-2.05608e-06 10.2263 0.773906 11.0002 1.72857 11.0002V10.0573ZM3.14286 9.27162C3.14286 9.70556 2.79108 10.0573 2.35714 10.0573V11.0002C3.31181 11.0002 4.08571 10.2263 4.08571 9.27162H3.14286ZM2.35714 6.60019C2.79108 6.60019 3.14286 6.95197 3.14286 7.3859H4.08571C4.08571 6.43124 3.31181 5.65733 2.35714 5.65733V6.60019ZM1.72857 5.65733C0.773906 5.65733 -2.05608e-06 6.43124 -2.05608e-06 7.3859H0.942856C0.942856 6.95197 1.29463 6.60019 1.72857 6.60019V5.65733ZM8.64286 6.60019H9.27143V5.65733H8.64286V6.60019ZM10.0571 7.3859V9.27162H11V7.3859H10.0571ZM9.27143 10.0573H8.64286V11.0002H9.27143V10.0573ZM7.85715 9.27162V7.3859H6.91429V9.27162H7.85715ZM8.64286 10.0573C8.20892 10.0573 7.85715 9.70556 7.85715 9.27162H6.91429C6.91429 10.2263 7.6882 11.0002 8.64286 11.0002V10.0573ZM10.0571 9.27162C10.0571 9.70556 9.70537 10.0573 9.27143 10.0573V11.0002C10.2261 11.0002 11 10.2263 11 9.27162H10.0571ZM9.27143 6.60019C9.70537 6.60019 10.0571 6.95197 10.0571 7.3859H11C11 6.43124 10.2261 5.65733 9.27143 5.65733V6.60019ZM8.64286 5.65733C7.6882 5.65733 6.91429 6.43124 6.91429 7.3859H7.85715C7.85715 6.95197 8.20892 6.60019 8.64286 6.60019V5.65733Z" fill="#D6D3E0"/>
</svg>
