<svg width="19" height="19" viewBox="0 0 19 19" fill="none" xmlns="http://www.w3.org/2000/svg">
<path fill-rule="evenodd" clip-rule="evenodd" d="M6.44605 1.35944C7.25476 0.495537 8.36268 0 9.52933 0C10.696 0 11.8039 0.495537 12.6126 1.35944C13.4197 2.22166 13.8652 3.38103 13.8652 4.5803C13.8652 5.28313 13.5761 6.02374 13.3178 6.62762C13.2454 6.79678 13.1744 6.95751 13.1066 7.11119C12.9063 7.56512 12.733 7.95765 12.6297 8.32506C12.4885 8.82683 12.5743 8.9615 12.6137 9.00457C12.7014 9.10044 13.0546 9.32046 14.1931 9.32046C15.3447 9.32046 16.5863 9.56434 17.5343 10.465C18.4883 11.3713 19 12.8032 19 14.854C19 15.2712 18.6618 15.6093 18.2447 15.6093H0.755289C0.338155 15.6093 0 15.2712 0 14.854C0 12.7969 0.529728 11.3643 1.5003 10.46C2.46171 9.56418 3.71417 9.32046 4.86556 9.32046C6.00404 9.32046 6.35728 9.10044 6.44496 9.00457C6.48434 8.9615 6.57014 8.82683 6.42898 8.32506C6.32562 7.95766 6.15238 7.56512 5.95204 7.1112L5.95204 7.1112L5.95203 7.11118C5.88421 6.9575 5.81328 6.79678 5.7409 6.62762C5.48253 6.02374 5.19341 5.28313 5.19341 4.5803C5.19341 3.38103 5.63891 2.22166 6.44605 1.35944ZM0.547781 16.3082C0.269692 16.3082 0.0442552 16.5336 0.0442552 16.8117V17.6383C0.0442552 17.9164 0.269692 18.1418 0.547782 18.1418H18.4527C18.7308 18.1418 18.9562 17.9164 18.9562 17.6383V16.8117C18.9562 16.5336 18.7308 16.3082 18.4527 16.3082H0.547781Z" fill="url(#paint0_linear_0_73)"/>
<defs>
<linearGradient id="paint0_linear_0_73" x1="5.11537" y1="0.453545" x2="14.769" y2="16.9504" gradientUnits="userSpaceOnUse">
<stop stop-color="#9172FF"/>
<stop offset="0.505" stop-color="#724BFF"/>
<stop offset="1" stop-color="#5D3DD0"/>
</linearGradient>
</defs>
</svg>
