<svg width="25" height="24" viewBox="0 0 25 24" fill="none" xmlns="http://www.w3.org/2000/svg">
<path fill-rule="evenodd" clip-rule="evenodd" d="M21.6342 17.0447C21.8409 16.7023 21.4304 16.3427 21.0702 16.5165C19.9874 17.0389 18.7757 17.3313 17.4965 17.3313C12.9003 17.3313 9.17431 13.5561 9.17431 8.89915C9.17431 6.53438 10.135 4.39699 11.6826 2.8658C11.9654 2.58599 11.7652 2.07141 11.3723 2.13444C6.67788 2.8877 2.75 6.55721 2.75 12.5C2.75 17.6829 6.33662 22 12.7105 22C16.346 22 19.8453 20.0091 21.6342 17.0447Z" fill="#413D4F"/>
<path d="M17.2292 3.56741C17.3379 3.33967 17.6621 3.33967 17.7708 3.56741L18.87 5.87096C18.9137 5.96261 19.0008 6.02592 19.1015 6.03919L21.632 6.37275C21.8821 6.40573 21.9823 6.71403 21.7993 6.88776L19.9482 8.64499C19.8745 8.71491 19.8412 8.81734 19.8597 8.91719L20.3245 11.4269C20.3704 11.675 20.1081 11.8656 19.8864 11.7452L17.6431 10.5277C17.5539 10.4792 17.4461 10.4792 17.3569 10.5277L15.1136 11.7452C14.8919 11.8656 14.6296 11.675 14.6755 11.4269L15.1403 8.91719C15.1588 8.81734 15.1255 8.71491 15.0518 8.64499L13.2007 6.88776C13.0177 6.71403 13.1179 6.40573 13.368 6.37275L15.8985 6.03919C15.9992 6.02592 16.0863 5.96261 16.13 5.87096L17.2292 3.56741Z" fill="#413D4F"/>
</svg>
