<svg width="25" height="24" viewBox="0 0 25 24" fill="none" xmlns="http://www.w3.org/2000/svg">
<path d="M3.5 10.1774C3.5 9.44183 3.86762 8.75492 4.47966 8.34689L11.2797 3.81356C12.0186 3.32091 12.9814 3.32091 13.7203 3.81356L20.5203 8.34689C21.1324 8.75492 21.5 9.44183 21.5 10.1774V19C21.5 20.1046 20.6046 21 19.5 21H16C15.1716 21 14.5 20.3284 14.5 19.5V15C14.5 14.4477 14.0523 14 13.5 14H11.5C10.9477 14 10.5 14.4477 10.5 15V19.5C10.5 20.3284 9.82843 21 9 21H5.5C4.39543 21 3.5 20.1046 3.5 19V10.1774Z" fill="#413D4F"/>
</svg>
