<svg width="18" height="18" viewBox="0 0 18 18" fill="none" xmlns="http://www.w3.org/2000/svg">
<path fill-rule="evenodd" clip-rule="evenodd" d="M14.3 0C13.582 0 13 0.582029 13 1.3V16.7C13 17.418 13.582 18 14.3 18H16.7C17.418 18 18 17.418 18 16.7V1.3C18 0.58203 17.418 0 16.7 0H14.3ZM6.5 5.3C6.5 4.58203 7.08203 4 7.8 4H10.2C10.918 4 11.5 4.58203 11.5 5.3V16.7C11.5 17.418 10.918 18 10.2 18H7.8C7.08203 18 6.5 17.418 6.5 16.7V5.3ZM0 8.3C0 7.58203 0.58203 7 1.3 7H3.7C4.41797 7 5 7.58203 5 8.3V16.7C5 17.418 4.41797 18 3.7 18H1.3C0.58203 18 0 17.418 0 16.7V8.3Z" fill="#413D4F"/>
</svg>
