<svg width="11" height="18" viewBox="0 0 11 18" fill="none" xmlns="http://www.w3.org/2000/svg">
<path d="M3.57128 12.1576L3.54839 11.4545C3.39958 9.55151 4.02914 8.46061 5.60874 7.47879C7.08533 6.54545 7.53174 5.95151 7.53174 4.81212V4.78788C7.53174 3.64848 6.66181 2.81212 5.35692 2.81212C4.04058 2.81212 3.17066 3.69697 3.11342 5.06667H3.09053L0 5.07879V5.05455C0.057232 2.08485 2.04891 0 5.56295 0C8.83663 0 11 1.92727 11 4.67879V4.70303C11 6.52121 10.1644 7.79394 8.55047 8.8C7.0281 9.73333 6.60458 10.3273 6.60458 11.5152V12.1576H3.57128ZM5.20812 18C3.92612 18 3.12487 17.2242 3.12487 15.9758C3.12487 14.7152 3.92612 13.9394 5.20812 13.9394C6.49011 13.9394 7.27992 14.7152 7.27992 15.9758C7.27992 17.2242 6.49011 18 5.20812 18Z" fill="#CECDD4"/>
</svg>
