<svg width="18" height="18" viewBox="0 0 18 18" fill="none" xmlns="http://www.w3.org/2000/svg">
<path d="M9.00002 7.31251V9.84376H11.3374M4.64517 2.25L2.25 3.9375M13.3548 2.25L15.75 3.9375M2.9032 9.84375C2.9032 10.6194 3.0609 11.3874 3.36729 12.104C3.67369 12.8206 4.12277 13.4717 4.68891 14.0201C5.25506 14.5685 5.92716 15.0036 6.66686 15.3004C7.40656 15.5972 8.19936 15.75 9.00001 15.75C9.80065 15.75 10.5935 15.5972 11.3332 15.3004C12.0729 15.0036 12.745 14.5685 13.3111 14.0201C13.8772 13.4717 14.3263 12.8206 14.6327 12.104C14.9391 11.3874 15.0968 10.6194 15.0968 9.84375C15.0968 9.06813 14.9391 8.3001 14.6327 7.58352C14.3263 6.86694 13.8772 6.21585 13.3111 5.6674C12.745 5.11895 12.0729 4.6839 11.3332 4.38708C10.5935 4.09027 9.80065 3.9375 9.00001 3.9375C8.19936 3.9375 7.40656 4.09027 6.66686 4.38708C5.92716 4.6839 5.25506 5.11895 4.68891 5.6674C4.12277 6.21585 3.67369 6.86694 3.36729 7.58352C3.0609 8.3001 2.9032 9.06813 2.9032 9.84375Z" stroke="#724BFF" stroke-width="1.125" stroke-linecap="round" stroke-linejoin="round"/>
</svg>
