<svg width="19" height="19" viewBox="0 0 19 19" fill="none" xmlns="http://www.w3.org/2000/svg">
<path fill-rule="evenodd" clip-rule="evenodd" d="M6.44607 1.35945C7.25478 0.495538 8.3627 0 9.52936 0C10.696 0 11.8039 0.495538 12.6127 1.35945C13.4198 2.22167 13.8653 3.38104 13.8653 4.58031C13.8653 5.28315 13.5762 6.02376 13.3178 6.62764C13.2454 6.79681 13.1745 6.95753 13.1067 7.11122C12.9063 7.56514 12.7331 7.95768 12.6297 8.32509C12.4886 8.82685 12.5744 8.96153 12.6137 9.0046C12.7014 9.10047 13.0547 9.32049 14.1931 9.32049C15.3448 9.32049 16.5864 9.56437 17.5344 10.465C18.4883 11.3713 19 12.8032 19 14.8541C19 15.2712 18.6619 15.6094 18.2447 15.6094H0.755292C0.338156 15.6094 0 15.2712 0 14.8541C0 12.797 0.52973 11.3644 1.50031 10.46C2.46172 9.56421 3.71418 9.32049 4.86557 9.32049C6.00406 9.32049 6.3573 9.10047 6.44498 9.00459C6.48436 8.96153 6.57016 8.82685 6.429 8.32509C6.32564 7.95768 6.1524 7.56515 5.95206 7.11123L5.95206 7.11122L5.95205 7.1112C5.88423 6.95752 5.81329 6.7968 5.74092 6.62764C5.48255 6.02376 5.19342 5.28315 5.19342 4.58031C5.19342 3.38104 5.63893 2.22167 6.44607 1.35945ZM0.547783 16.3082C0.269692 16.3082 0.0442554 16.5337 0.0442554 16.8118V17.6383C0.0442554 17.9164 0.269693 18.1419 0.547784 18.1419H18.4528C18.7309 18.1419 18.9563 17.9164 18.9563 17.6383V16.8118C18.9563 16.5337 18.7309 16.3082 18.4528 16.3082H0.547783Z" fill="#413D4F"/>
</svg>
