<svg width="18" height="18" viewBox="0 0 18 18" fill="none" xmlns="http://www.w3.org/2000/svg">
<path d="M0 6.73307C0 5.99749 0.367623 5.31058 0.97966 4.90256L7.77966 0.369224C8.51864 -0.123428 9.48136 -0.123428 10.2203 0.369224L17.0203 4.90256C17.6324 5.31058 18 5.99749 18 6.73307V15.5557C18 16.6602 17.1046 17.5557 16 17.5557H12.5C11.6716 17.5557 11 16.8841 11 16.0557V11.5557C11 11.0034 10.5523 10.5557 10 10.5557H8C7.44772 10.5557 7 11.0034 7 11.5557V16.0557C7 16.8841 6.32843 17.5557 5.5 17.5557H2C0.89543 17.5557 0 16.6602 0 15.5557V6.73307Z" fill="#413D4F"/>
</svg>
