<svg width="24" height="24" viewBox="0 0 24 24" fill="none" xmlns="http://www.w3.org/2000/svg">
<path d="M6 6C6 5.44772 6.44772 5 7 5H8.85714C9.40943 5 9.85714 5.44772 9.85714 6V18C9.85714 18.5523 9.40943 19 8.85714 19H7C6.44772 19 6 18.5523 6 18V6Z" fill="white"/>
<path d="M14.1429 6C14.1429 5.44772 14.5906 5 15.1429 5H17C17.5523 5 18 5.44772 18 6V18C18 18.5523 17.5523 19 17 19H15.1429C14.5906 19 14.1429 18.5523 14.1429 18V6Z" fill="white"/>
<path d="M6 6C6 5.44772 6.44772 5 7 5H8.85714C9.40943 5 9.85714 5.44772 9.85714 6V18C9.85714 18.5523 9.40943 19 8.85714 19H7C6.44772 19 6 18.5523 6 18V6Z" stroke="white" stroke-width="1.5" stroke-linejoin="round"/>
<path d="M14.1429 6C14.1429 5.44772 14.5906 5 15.1429 5H17C17.5523 5 18 5.44772 18 6V18C18 18.5523 17.5523 19 17 19H15.1429C14.5906 19 14.1429 18.5523 14.1429 18V6Z" stroke="white" stroke-width="1.5" stroke-linejoin="round"/>
</svg>
