<svg width="18" height="18" viewBox="0 0 18 18" fill="none" xmlns="http://www.w3.org/2000/svg">
<path d="M9 0.771429V0V0.771429ZM17.2286 9H18H17.2286ZM1.54286 12.0857V9H0V12.0857H1.54286ZM1.54286 9C1.54286 7.02224 2.32852 5.12549 3.727 3.727L2.63604 2.63604C0.948212 4.32387 0 6.61305 0 9H1.54286ZM3.727 3.727C5.12549 2.32852 7.02224 1.54286 9 1.54286V0C6.61305 0 4.32387 0.948212 2.63604 2.63604L3.727 3.727ZM9 1.54286C10.9778 1.54286 12.8745 2.32852 14.273 3.727L15.364 2.63604C13.6761 0.948212 11.3869 0 9 0V1.54286ZM14.273 3.727C15.6715 5.12549 16.4571 7.02224 16.4571 9H18C18 6.61305 17.0518 4.32387 15.364 2.63604L14.273 3.727ZM16.4571 9V12.0857H18V9H16.4571ZM2.82857 10.8H3.85714V9.25714H2.82857V10.8ZM5.14286 12.0857V15.1714H6.68571V12.0857H5.14286ZM3.85714 16.4571H2.82857V18H3.85714V16.4571ZM1.54286 15.1714V12.0857H0V15.1714H1.54286ZM2.82857 16.4571C2.11849 16.4571 1.54286 15.8815 1.54286 15.1714H0C0 16.7336 1.26639 18 2.82857 18V16.4571ZM5.14286 15.1714C5.14286 15.8815 4.56722 16.4571 3.85714 16.4571V18C5.41932 18 6.68571 16.7336 6.68571 15.1714H5.14286ZM3.85714 10.8C4.56722 10.8 5.14286 11.3756 5.14286 12.0857H6.68571C6.68571 10.5235 5.41932 9.25714 3.85714 9.25714V10.8ZM2.82857 9.25714C1.26639 9.25714 0 10.5235 0 12.0857H1.54286C1.54286 11.3756 2.11849 10.8 2.82857 10.8V9.25714ZM14.1429 10.8H15.1714V9.25714H14.1429V10.8ZM16.4571 12.0857V15.1714H18V12.0857H16.4571ZM15.1714 16.4571H14.1429V18H15.1714V16.4571ZM12.8571 15.1714V12.0857H11.3143V15.1714H12.8571ZM14.1429 16.4571C13.4328 16.4571 12.8571 15.8815 12.8571 15.1714H11.3143C11.3143 16.7336 12.5807 18 14.1429 18V16.4571ZM16.4571 15.1714C16.4571 15.8815 15.8815 16.4571 15.1714 16.4571V18C16.7336 18 18 16.7336 18 15.1714H16.4571ZM15.1714 10.8C15.8815 10.8 16.4571 11.3756 16.4571 12.0857H18C18 10.5235 16.7336 9.25714 15.1714 9.25714V10.8ZM14.1429 9.25714C12.5807 9.25714 11.3143 10.5235 11.3143 12.0857H12.8571C12.8571 11.3756 13.4328 10.8 14.1429 10.8V9.25714Z" fill="white"/>
</svg>
