<svg width="9" height="9" viewBox="0 0 9 9" fill="none" xmlns="http://www.w3.org/2000/svg">
<path d="M4.22266 0.175084C4.33397 -0.0581932 4.66603 -0.0581931 4.77734 0.175084L5.90328 2.53467C5.94808 2.62855 6.03733 2.6934 6.14046 2.70699L8.7325 3.04867C8.98875 3.08245 9.09136 3.39825 8.9039 3.57621L7.00774 5.37619C6.93229 5.44781 6.8982 5.55273 6.91714 5.65501L7.39317 8.22577C7.44023 8.47992 7.17159 8.6751 6.94442 8.5518L4.64659 7.30467C4.55516 7.25505 4.44484 7.25505 4.35341 7.30467L2.05558 8.5518C1.82841 8.6751 1.55977 8.47992 1.60683 8.22577L2.08286 5.65501C2.1018 5.55273 2.06771 5.44781 1.99226 5.37619L0.0960984 3.57621C-0.091363 3.39825 0.0112474 3.08245 0.267505 3.04867L2.85954 2.70699C2.96267 2.6934 3.05192 2.62855 3.09672 2.53467L4.22266 0.175084Z" fill="url(#paint0_linear_0_54)"/>
<defs>
<linearGradient id="paint0_linear_0_54" x1="2.13617" y1="-0.150048" x2="7.70702" y2="8.93992" gradientUnits="userSpaceOnUse">
<stop stop-color="#9172FF"/>
<stop offset="0.505" stop-color="#724BFF"/>
<stop offset="1" stop-color="#5D3DD0"/>
</linearGradient>
</defs>
</svg>
